<svg width="80" height="80" viewBox="0 0 80 80" fill="none" xmlns="http://www.w3.org/2000/svg">
<g clip-path="url(#clip0_8029_924)">
<path d="M16.6663 0C7.48125 0 0 7.48125 0 16.6663C0 24.71 5.73812 31.4481 13.3337 32.9975V56.6663C13.3337 64.0225 19.3838 70 26.6663 70H26.7881C27.6019 75.6394 32.4756 80 38.3337 80C44.7575 80 50 74.7575 50 68.3337C50 61.91 44.7575 56.6663 38.3337 56.6663C32.4762 56.6663 27.6025 61.0269 26.7881 66.6663H26.6663C21.2056 66.6663 16.6663 62.1963 16.6663 56.6663V39.8619C17.7449 40.9624 19.0325 41.8365 20.4535 42.4327C21.8745 43.0289 23.4002 43.3352 24.9412 43.3337H26.7881C27.6025 48.9731 32.4756 53.3337 38.3337 53.3337C44.1912 53.3337 49.0644 48.9731 49.8775 43.3337H56.7881C57.6025 48.9731 62.4756 53.3337 68.3337 53.3337C74.7575 53.3337 80 48.09 80 41.6663C80 35.2425 74.7575 30 68.3337 30C62.4756 30 57.6019 34.3606 56.7881 40H49.8781C49.065 34.3606 44.1919 30 38.3337 30C32.4756 30 27.6019 34.3606 26.7881 40H24.9412C20.9206 40 17.5706 37.1319 16.8237 33.33C25.9362 33.245 33.3337 25.7988 33.3337 16.6663C33.3337 7.48125 25.8512 0 16.6663 0ZM16.6663 3.33375C18.4181 3.33029 20.1535 3.67278 21.7727 4.34156C23.3919 5.01034 24.8631 5.99225 26.1019 7.23096C27.3407 8.46967 28.3228 9.9408 28.9917 11.5599C29.6606 13.1791 30.0033 14.9144 30 16.6663C30.0033 18.4182 29.6607 20.1535 28.9917 21.7727C28.3228 23.392 27.3408 24.8632 26.102 26.102C24.8632 27.3408 23.392 28.3228 21.7727 28.9917C20.1535 29.6607 18.4182 30.0033 16.6663 30C14.9144 30.0033 13.1791 29.6606 11.5599 28.9917C9.9408 28.3228 8.46967 27.3407 7.23096 26.1019C5.99225 24.8631 5.01034 23.3919 4.34156 21.7727C3.67278 20.1535 3.33029 18.4181 3.33375 16.6663C3.33029 14.9144 3.67278 13.1792 4.34158 11.56C5.01038 9.9409 5.99231 8.46976 7.23103 7.23103C8.46976 5.99231 9.9409 5.01038 11.56 4.34158C13.1792 3.67278 14.9144 3.33029 16.6663 3.33375ZM13.4069 8.04688C11.6688 8.05562 10 9.45188 10 11.3538V22.0056C10 24.5325 12.9431 26.17 15.0906 24.8388L23.6119 19.5544C25.6475 18.2919 25.6581 15.1781 23.6319 13.9013L15.11 8.5325C14.6006 8.21056 14.0094 8.04198 13.4069 8.04688ZM13.3337 11.3538L21.8556 16.7213L13.3337 22.0056V11.3538ZM38.3337 33.3337C39.429 33.3303 40.514 33.5434 41.5266 33.961C42.5391 34.3785 43.459 34.9921 44.2334 35.7666C45.0079 36.541 45.6215 37.4609 46.039 38.4734C46.4566 39.486 46.6697 40.571 46.6663 41.6663C46.6696 42.7615 46.4564 43.8466 46.0389 44.8591C45.6214 45.8717 45.0077 46.7917 44.2333 47.5662C43.4589 48.3407 42.539 48.9545 41.5266 49.3722C40.5141 49.7898 39.429 50.0032 38.3337 50C37.2384 50.0033 36.1532 49.79 35.1407 49.3724C34.1281 48.9547 33.2081 48.341 32.4335 47.5665C31.659 46.7919 31.0453 45.8719 30.6276 44.8593C30.21 43.8467 29.9967 42.7616 30 41.6663C29.9968 40.571 30.2102 39.4859 30.6278 38.4734C31.0455 37.461 31.6593 36.5411 32.4338 35.7667C33.2083 34.9923 34.1283 34.3786 35.1409 33.9611C36.1534 33.5436 37.2385 33.3304 38.3337 33.3337ZM68.3337 33.3337C69.429 33.3303 70.514 33.5434 71.5266 33.961C72.5391 34.3785 73.459 34.9921 74.2334 35.7666C75.0079 36.541 75.6215 37.4609 76.039 38.4734C76.4566 39.486 76.6697 40.571 76.6663 41.6663C76.6696 42.7615 76.4564 43.8466 76.0389 44.8591C75.6214 45.8717 75.0077 46.7917 74.2333 47.5662C73.4589 48.3407 72.539 48.9545 71.5266 49.3722C70.5141 49.7898 69.429 50.0032 68.3337 50C67.2384 50.0033 66.1533 49.79 65.1407 49.3724C64.1281 48.9547 63.2081 48.341 62.4335 47.5665C61.659 46.7919 61.0453 45.8719 60.6276 44.8593C60.21 43.8467 59.9967 42.7616 60 41.6663C59.9968 40.571 60.2102 39.4859 60.6278 38.4734C61.0455 37.461 61.6593 36.5411 62.4338 35.7667C63.2083 34.9923 64.1283 34.3786 65.1409 33.9611C66.1534 33.5436 67.2385 33.3304 68.3337 33.3337ZM41.7287 37.6781C41.5098 37.6779 41.2929 37.7209 41.0906 37.8045C40.8882 37.8882 40.7043 38.0109 40.5494 38.1656L36.6119 42.0994L35.3037 40.7969C34.9907 40.4849 34.5665 40.3101 34.1245 40.3108C33.6826 40.3115 33.259 40.4877 32.9469 40.8006C32.7924 40.9557 32.67 41.1398 32.5866 41.3422C32.5033 41.5446 32.4606 41.7615 32.4611 41.9804C32.4615 42.1993 32.5051 42.416 32.5893 42.6181C32.6735 42.8202 32.7967 43.0037 32.9519 43.1581L35.4356 45.6331C35.7482 45.9446 36.1714 46.1194 36.6126 46.1192C37.0538 46.1191 37.477 45.9441 37.7894 45.6325L42.905 40.5238C43.0599 40.369 43.1828 40.1853 43.2667 39.9831C43.3506 39.7809 43.3938 39.5642 43.3939 39.3453C43.394 39.1263 43.351 38.9095 43.2674 38.7072C43.1837 38.5049 43.061 38.3211 42.9062 38.1663C42.5938 37.8542 42.1703 37.6782 41.7287 37.6781ZM71.7288 37.6781C71.5098 37.6779 71.2929 37.7209 71.0906 37.8045C70.8882 37.8882 70.7043 38.0109 70.5494 38.1656L66.6119 42.0994L65.3037 40.7969C64.9907 40.4849 64.5665 40.3101 64.1245 40.3108C63.6826 40.3115 63.259 40.4877 62.9469 40.8006C62.7924 40.9557 62.67 41.1398 62.5866 41.3422C62.5033 41.5446 62.4606 41.7615 62.4611 41.9804C62.4615 42.1993 62.5051 42.416 62.5893 42.6181C62.6735 42.8202 62.7967 43.0037 62.9519 43.1581L65.4356 45.6331C65.7482 45.9446 66.1714 46.1194 66.6126 46.1192C67.0538 46.1191 67.477 45.9441 67.7894 45.6325L72.905 40.5238C73.0599 40.369 73.1828 40.1853 73.2667 39.9831C73.3506 39.7809 73.3938 39.5642 73.3939 39.3453C73.394 39.1263 73.351 38.9095 73.2674 38.7072C73.1837 38.5049 73.061 38.3211 72.9062 38.1663C72.5938 37.8542 72.1703 37.6782 71.7288 37.6781ZM38.3337 60C39.429 59.9968 40.5141 60.2102 41.5266 60.6278C42.539 61.0455 43.4589 61.6593 44.2333 62.4338C45.0077 63.2083 45.6214 64.1283 46.0389 65.1409C46.4564 66.1534 46.6696 67.2385 46.6663 68.3337C46.6697 69.429 46.4566 70.514 46.039 71.5266C45.6215 72.5391 45.0079 73.459 44.2334 74.2334C43.459 75.0079 42.5391 75.6215 41.5266 76.039C40.514 76.4566 39.429 76.6697 38.3337 76.6663C37.2385 76.6696 36.1534 76.4564 35.1409 76.0389C34.1283 75.6214 33.2083 75.0077 32.4338 74.2333C31.6593 73.4589 31.0455 72.539 30.6278 71.5266C30.2102 70.5141 29.9968 69.429 30 68.3337C29.9967 67.2384 30.21 66.1533 30.6276 65.1407C31.0453 64.1281 31.659 63.2081 32.4335 62.4335C33.2081 61.659 34.1281 61.0453 35.1407 60.6276C36.1532 60.21 37.2384 59.9967 38.3337 60ZM35 65.8337C33.6294 65.8337 32.5 66.9631 32.5 68.3337C32.5 69.7056 33.63 70.8337 35 70.8337C36.37 70.8337 37.5 69.7056 37.5 68.3337C37.5 66.9631 36.3706 65.8337 35 65.8337ZM41.6663 65.8337C40.2956 65.8337 39.1663 66.9631 39.1663 68.3337C39.1663 69.7056 40.2963 70.8337 41.6663 70.8337C43.0363 70.8337 44.1663 69.7056 44.1663 68.3337C44.1663 66.9631 43.0369 65.8337 41.6663 65.8337ZM35 67.5C35.4688 67.5 35.8337 67.8656 35.8337 68.3337C35.8337 68.8044 35.4694 69.1663 35 69.1663C34.5312 69.1663 34.1663 68.8037 34.1663 68.3337C34.1663 67.865 34.5319 67.5 35 67.5ZM41.6663 67.5C42.135 67.5 42.5 67.8656 42.5 68.3337C42.5 68.8044 42.1356 69.1663 41.6663 69.1663C41.1975 69.1663 40.8337 68.8037 40.8337 68.3337C40.8337 67.865 41.1981 67.5 41.6663 67.5Z" fill="#2088FF"/>
<path d="M68.3337 56.666C62.4694 56.666 57.5912 61.0366 56.7856 66.6854C56.7306 66.6804 56.6753 66.6781 56.62 66.6785L54.9325 66.7348C54.4909 66.7493 54.0731 66.9385 53.771 67.2609C53.4688 67.5834 53.3071 68.0125 53.3212 68.4541C53.3358 68.8959 53.5251 69.3137 53.8476 69.6159C54.1702 69.918 54.5995 70.0797 55.0412 70.0654L56.7287 70.011C56.749 70.0101 56.7692 70.0089 56.7894 70.0073C57.6062 75.6429 62.4781 79.9998 68.3337 79.9998C74.7575 79.9998 80 74.7573 80 68.3335C80 61.9098 74.7575 56.666 68.3337 56.666ZM68.3337 59.9998C69.429 59.9965 70.5141 60.2099 71.5265 60.6276C72.539 61.0453 73.4589 61.659 74.2333 62.4336C75.0077 63.2081 75.6213 64.1281 76.0389 65.1406C76.4564 66.1532 76.6696 67.2383 76.6662 68.3335C76.6697 69.4287 76.4566 70.5138 76.039 71.5263C75.6215 72.5388 75.0079 73.4588 74.2334 74.2332C73.459 75.0076 72.5391 75.6213 71.5266 76.0388C70.514 76.4563 69.429 76.6695 68.3337 76.666C67.2385 76.6694 66.1534 76.4562 65.1408 76.0387C64.1283 75.6211 63.2083 75.0075 62.4338 74.2331C61.6593 73.4587 61.0455 72.5388 60.6278 71.5263C60.2101 70.5138 59.9968 69.4288 60 68.3335C59.9967 67.2382 60.21 66.153 60.6276 65.1404C61.0453 64.1278 61.659 63.2078 62.4335 62.4333C63.208 61.6588 64.1281 61.0451 65.1407 60.6274C66.1532 60.2098 67.2384 59.9965 68.3337 59.9998Z" fill="#79B8FF"/>
</g>
<defs>
<clipPath id="clip0_8029_924">
<rect width="80" height="80" fill="white"/>
</clipPath>
</defs>
</svg>
