<svg width="71" height="80" viewBox="0 0 71 80" fill="none" xmlns="http://www.w3.org/2000/svg">
<path d="M6.38095 72L0 0H70.5714L64.1905 72L35.3333 80L6.57143 72H6.38095Z" fill="#264DE4"/>
<path d="M58.5581 67.4369L64.0819 5.91309H35.2248V73.9131L58.5581 67.4369Z" fill="#2965F1"/>
<path d="M14.6483 32.561L15.4102 41.4182H35.1244V32.561H14.553H14.6483ZM13.8863 23.5134H35.2197V14.6562H13.0292L13.7911 23.5134H13.8863ZM35.2197 55.5134L25.4102 52.8467L24.7435 45.7991H15.8863L17.1244 59.7039L35.2197 64.7515V55.5134Z" fill="#EBEBEB"/>
<path d="M35.2248 32.5771V41.4343H46.0819L45.0343 52.8629L35.2248 55.5295V64.6724L53.32 59.6248V58.101C53.4152 58.101 55.5105 34.8629 55.5105 34.8629L55.701 32.4819L57.32 14.5771H35.2248V23.4343H47.7009L46.939 32.4819H35.32L35.2248 32.5771Z" fill="white"/>
</svg>
