<svg width="96" height="74" viewBox="0 0 96 74" fill="none" xmlns="http://www.w3.org/2000/svg">
<g clip-path="url(#clip0_8029_919)">
<path d="M93.0244 31.723C92.7616 31.5033 90.3964 29.7015 85.3152 29.7015C84.0012 29.7015 82.6432 29.8334 81.3292 30.0531C80.3656 23.3292 74.8028 20.0772 74.5836 19.9014L73.2256 19.1104L72.3496 20.3848C71.2548 22.0987 70.4224 24.0324 69.9404 26.01C69.0208 29.8333 69.59 33.437 71.5176 36.5132C69.196 37.8316 65.4288 38.1393 64.6404 38.1832H2.4405C0.8198 38.1832 -0.494283 39.5016 -0.494283 41.1278C-0.581889 46.577 0.337968 52.0266 2.22149 57.1682C4.36784 62.7934 7.56544 66.9682 11.6829 69.5174C16.326 72.3738 23.9038 73.9998 32.4454 73.9998C36.3 73.9998 40.1548 73.6482 43.9656 72.945C49.2656 71.9782 54.3468 70.1326 59.0336 67.4518C62.8884 65.2106 66.3488 62.3538 69.2836 59.0138C74.2332 53.4326 77.168 47.1922 79.3144 41.655H80.1904C85.578 41.655 88.9072 39.5016 90.7468 37.6558C91.9732 36.5132 92.8932 35.107 93.5504 33.5249L93.9444 32.3822L93.0244 31.723Z" fill="#0091E2"/>
<path d="M8.26029 36.4164H16.5826C16.9768 36.4164 17.3272 36.1083 17.3272 35.6681V28.1851C17.3272 27.7889 17.0206 27.4368 16.5826 27.4368H8.26029C7.86609 27.4368 7.51569 27.7449 7.51569 28.1851V35.6681C7.55949 36.1083 7.86609 36.4164 8.26029 36.4164ZM19.7363 36.4164H28.0585C28.4528 36.4164 28.8032 36.1083 28.8032 35.6681V28.1851C28.8032 27.7889 28.4966 27.4368 28.0585 27.4368H19.7363C19.342 27.4368 18.9916 27.7449 18.9916 28.1851V35.6681C19.0354 36.1083 19.342 36.4164 19.7363 36.4164ZM31.4312 36.4164H39.7536C40.1476 36.4164 40.498 36.1083 40.498 35.6682V28.1851C40.498 27.7889 40.1916 27.4368 39.7536 27.4368H31.4312C31.037 27.4368 30.6866 27.7449 30.6866 28.1851V35.6681C30.6866 36.1083 30.9932 36.4164 31.4312 36.4164ZM42.9512 36.4164H51.2732C51.6676 36.4164 52.018 36.1083 52.018 35.6682V28.1851C52.018 27.7889 51.7112 27.4368 51.2732 27.4368L42.9512 27.4368C42.5568 27.4368 42.2064 27.7449 42.2064 28.1851V35.6682C42.2064 36.1083 42.5568 36.4164 42.9512 36.4164ZM19.7363 25.7201H28.0585C28.4528 25.7201 28.8032 25.3679 28.8032 24.9718V17.4887C28.8032 17.0926 28.4966 16.7404 28.0585 16.7404H19.7363C19.342 16.7404 18.9916 17.0485 18.9916 17.4887V24.9718C19.0354 25.3679 19.342 25.7201 19.7363 25.7201ZM31.4312 25.7201H39.7536C40.1476 25.7201 40.498 25.3679 40.498 24.9718V17.4887C40.498 17.0926 40.1916 16.7404 39.7536 16.7404H31.4312C31.037 16.7404 30.6866 17.0485 30.6866 17.4887V24.9718C30.6866 25.3679 30.9932 25.7201 31.4312 25.7201ZM42.9512 25.7201H51.2732C51.6676 25.7201 52.018 25.3679 52.018 24.9718V17.4887C52.018 17.0926 51.6676 16.7404 51.2732 16.7404H42.9512C42.5568 16.7404 42.2064 17.0485 42.2064 17.4887V24.9718C42.2064 25.3679 42.5568 25.7201 42.9512 25.7201ZM42.9512 14.9797H51.2732C51.6676 14.9797 52.018 14.6716 52.018 14.2314V6.74832C52.018 6.35216 51.6676 6 51.2732 6H42.9512C42.5568 6 42.2064 6.30812 42.2064 6.74832V14.2314C42.2064 14.6275 42.5568 14.9797 42.9512 14.9797ZM54.5584 36.4164H62.8808C63.2748 36.4164 63.6252 36.1083 63.6252 35.6682V28.1851C63.6252 27.7889 63.3188 27.4368 62.8808 27.4368H54.5584C54.164 27.4368 53.8136 27.7449 53.8136 28.1851V35.6682C53.8576 36.1083 54.164 36.4164 54.5584 36.4164Z" fill="#0091E2"/>
</g>
<defs>
<clipPath id="clip0_8029_919">
<rect width="96" height="74" fill="white"/>
</clipPath>
</defs>
</svg>
