<svg width="80" height="80" viewBox="0 0 80 80" fill="none" xmlns="http://www.w3.org/2000/svg">
<path fill-rule="evenodd" clip-rule="evenodd" d="M39.3847 16.7812H73.8463V33.1892H39.3847V16.7812Z" fill="white"/>
<path fill-rule="evenodd" clip-rule="evenodd" d="M8.20514 70.3483C5.17006 70.3483 2.52595 68.4049 1.10646 65.5225C0.381739 66.9879 -3.16156e-05 68.653 1.96373e-09 70.3483C1.96373e-09 75.679 3.67344 80 8.20514 80H16.4103V70.3483H8.20514Z" fill="#3ECC5F"/>
<path fill-rule="evenodd" clip-rule="evenodd" d="M45.1203 19.3757L73.8465 17.2639V12.438C73.8465 7.1074 70.173 2.78633 65.6413 2.78633H28.7182L27.6926 0.696733C27.2364 -0.232244 26.0971 -0.232244 25.6413 0.696733L24.6156 2.78633L23.59 0.696733C23.1342 -0.232244 21.9945 -0.232244 21.5387 0.696733L20.5131 2.78633L19.4874 0.696733C19.0316 -0.232244 17.8919 -0.232244 17.4361 0.696733L16.4105 2.78633C16.4015 2.78633 16.3933 2.78778 16.3838 2.78778L14.6845 0.789389C14.0404 0.0312471 12.9401 0.377744 12.7038 1.41385L12.1422 3.87697L10.0121 3.20521C9.1309 2.92773 8.32557 3.87552 8.56187 4.91163L9.13213 7.4177L7.039 8.0774C6.15777 8.35536 5.86279 9.65014 6.50731 10.4083L8.20659 12.4072C8.20659 12.4173 8.20536 12.4274 8.20536 12.438L6.42895 13.6445C5.6392 14.1807 5.6392 15.5213 6.42895 16.0574L8.20536 17.2639L6.42895 18.4704C5.6392 19.0065 5.6392 20.3471 6.42895 20.8833L8.20536 22.0897L6.42895 23.2962C5.6392 23.8324 5.6392 25.173 6.42895 25.7091L8.20536 26.9156L6.42895 28.1221C5.6392 28.6582 5.6392 29.9988 6.42895 30.535L8.20536 31.7415L6.42895 32.9479C5.6392 33.4841 5.6392 34.8247 6.42895 35.3608L8.20536 36.5673L6.42895 37.7738C5.6392 38.3099 5.6392 39.6505 6.42895 40.1867L8.20536 41.3932L6.42895 42.5996C5.6392 43.1358 5.6392 44.4764 6.42895 45.0126L8.20536 46.219L6.42895 47.4255C5.6392 47.9616 5.6392 49.3023 6.42895 49.8384L8.20536 51.0449L6.42895 52.2513C5.6392 52.7875 5.6392 54.1281 6.42895 54.6643L8.20536 55.8707L6.42895 57.0772C5.6392 57.6133 5.6392 58.954 6.42895 59.4901L8.20536 60.6966L6.42895 61.903C5.6392 62.4392 5.6392 63.7798 6.42895 64.316L8.20536 65.5224L6.42895 66.7289C5.6392 67.2651 5.6392 68.6057 6.42895 69.1418L8.20536 70.3483C8.20536 75.6789 11.8788 80 16.4105 80H65.6413C70.173 80 73.8465 75.6789 73.8465 70.3483V31.7415L45.1203 29.6297C44.0114 29.548 42.9707 28.9723 42.2101 28.0198C41.4494 27.0673 41.0259 25.8096 41.0259 24.5027C41.0259 21.7901 42.8187 19.5451 45.1203 19.3757Z" fill="#3ECC5F"/>
<path fill-rule="evenodd" clip-rule="evenodd" d="M57.436 79.9997H69.7437V60.6963H57.436V79.9997Z" fill="#3ECC5F"/>
<path fill-rule="evenodd" clip-rule="evenodd" d="M77.9488 67.9349C77.8589 67.9349 77.7732 67.9528 77.6866 67.9658C77.671 67.8934 77.6563 67.8205 77.639 67.7482C78.0762 67.5331 78.4366 67.1467 78.659 66.6545C78.8815 66.1623 78.9522 65.5947 78.8591 65.0482C78.7661 64.5017 78.515 64.0099 78.1487 63.6564C77.7823 63.3029 77.3232 63.1095 76.8493 63.1091C76.4013 63.111 75.9664 63.2867 75.612 63.609C75.5666 63.5545 75.5208 63.5004 75.4745 63.4469C75.7425 63.0323 75.8882 62.5262 75.8893 62.0054C75.889 61.4494 75.7256 60.9107 75.4265 60.4801C75.1275 60.0496 74.7113 59.7538 74.2482 59.6426C73.7851 59.5314 73.3036 59.6118 72.8851 59.87C72.4666 60.1283 72.1367 60.5486 71.9512 61.06C71.8905 61.0397 71.8294 61.0228 71.7687 61.0045C71.7798 60.9027 71.7949 60.8018 71.7949 60.6961C71.7949 60.0562 71.5788 59.4424 71.1941 58.9899C70.8094 58.5374 70.2877 58.2832 69.7437 58.2832C69.1996 58.2832 68.6779 58.5374 68.2932 58.9899C67.9085 59.4424 67.6924 60.0562 67.6924 60.6961C67.6924 60.8018 67.7075 60.9027 67.7186 61.0045C67.6579 61.0228 67.5968 61.0397 67.5361 61.06C67.3513 60.5477 67.0215 60.1263 66.6028 59.8673C66.184 59.6082 65.702 59.5275 65.2385 59.6388C64.7749 59.7501 64.3583 60.0465 64.0593 60.4779C63.7603 60.9092 63.5974 61.4489 63.598 62.0054C63.598 62.5483 63.7555 63.0434 64.0128 63.4469C62.4879 65.1996 61.5385 67.642 61.5385 70.3478C61.5385 75.6785 65.212 79.9995 69.7437 79.9995C73.575 79.9995 76.7837 76.9062 77.6866 72.7299C77.7732 72.7429 77.8589 72.7608 77.9488 72.7608C78.4928 72.7608 79.0146 72.5066 79.3993 72.054C79.784 71.6015 80.0001 70.9878 80.0001 70.3478C80.0001 69.7079 79.784 69.0942 79.3993 68.6416C79.0146 68.1891 78.4928 67.9349 77.9488 67.9349Z" fill="#44D860"/>
<path fill-rule="evenodd" clip-rule="evenodd" d="M61.5385 51.0453H73.8462V41.3936H61.5385V51.0453Z" fill="#3ECC5F"/>
<path fill-rule="evenodd" clip-rule="evenodd" d="M77.9486 47.4258C78.2206 47.4258 78.4815 47.2987 78.6738 47.0724C78.8662 46.8462 78.9742 46.5393 78.9742 46.2193C78.9742 45.8994 78.8662 45.5925 78.6738 45.3662C78.4815 45.14 78.2206 45.0129 77.9486 45.0129C77.9039 45.0129 77.8608 45.0221 77.8177 45.0283C77.8095 44.9921 77.8025 44.9559 77.7939 44.9197C78.0122 44.8119 78.1921 44.6186 78.3031 44.3726C78.4141 44.1265 78.4493 43.8429 78.4028 43.5698C78.3563 43.2967 78.2309 43.051 78.0479 42.8742C77.8649 42.6974 77.6356 42.6005 77.3988 42.6C77.1654 42.6 76.9525 42.695 76.7802 42.8499C76.7576 42.8224 76.7346 42.7954 76.7112 42.7689C76.8401 42.5676 76.9188 42.3196 76.9188 42.0479C76.9188 41.7698 76.837 41.5003 76.6875 41.285C76.538 41.0697 76.3298 40.9217 76.0982 40.8661C75.8665 40.8106 75.6257 40.8508 75.4164 40.9801C75.2072 41.1093 75.0422 41.3196 74.9496 41.5754C74.5905 41.4559 74.2192 41.3947 73.846 41.3935C71.5806 41.3935 69.7434 43.5545 69.7434 46.2193C69.7434 48.8842 71.5806 51.0452 73.846 51.0452C74.2292 51.0452 74.598 50.9786 74.9496 50.8633C75.0422 51.1191 75.2072 51.3294 75.4164 51.4586C75.6257 51.5879 75.8665 51.6281 76.0982 51.5726C76.3298 51.517 76.538 51.369 76.6875 51.1537C76.837 50.9384 76.9188 50.6689 76.9188 50.3908C76.9188 50.1191 76.8401 49.8711 76.7112 49.6698C76.7346 49.6433 76.7576 49.6163 76.7802 49.5888C76.9525 49.7437 77.1654 49.8387 77.3988 49.8387C77.6359 49.8387 77.8656 49.7421 78.0489 49.5654C78.2322 49.3886 78.3579 49.1426 78.4044 48.8693C78.451 48.5959 78.4156 48.3119 78.3043 48.0658C78.193 47.8196 78.0126 47.6264 77.7939 47.519C77.8025 47.4832 77.8095 47.4466 77.8177 47.4104C77.8608 47.4166 77.9039 47.4258 77.9486 47.4258Z" fill="#44D860"/>
<path fill-rule="evenodd" clip-rule="evenodd" d="M24.6157 18.4702C24.3437 18.4702 24.0828 18.3431 23.8904 18.1169C23.6981 17.8906 23.59 17.5837 23.59 17.2638C23.59 15.2678 22.2099 13.6444 20.5131 13.6444C18.8163 13.6444 17.4362 15.2678 17.4362 17.2638C17.4362 17.5837 17.3281 17.8906 17.1358 18.1169C16.9434 18.3431 16.6826 18.4702 16.4105 18.4702C16.1385 18.4702 15.8777 18.3431 15.6853 18.1169C15.493 17.8906 15.3849 17.5837 15.3849 17.2638C15.3849 13.9373 17.6852 11.2314 20.5131 11.2314C23.341 11.2314 25.6413 13.9373 25.6413 17.2638C25.6413 17.5837 25.5333 17.8906 25.3409 18.1169C25.1486 18.3431 24.8877 18.4702 24.6157 18.4702Z" fill="black"/>
<path fill-rule="evenodd" clip-rule="evenodd" d="M41.0255 80.0001H65.6409C70.1726 80.0001 73.8461 75.679 73.8461 70.3484V36.5674H49.2307C44.699 36.5674 41.0255 40.8885 41.0255 46.2191V80.0001Z" fill="#FFFF50"/>
<path fill-rule="evenodd" clip-rule="evenodd" d="M67.7009 51.5275H47.1717C47.0628 51.5275 46.9585 51.4766 46.8816 51.3861C46.8046 51.2956 46.7614 51.1729 46.7614 51.0449C46.7614 50.9169 46.8046 50.7942 46.8816 50.7037C46.9585 50.6132 47.0628 50.5623 47.1717 50.5623H67.7009C67.8097 50.5623 67.9141 50.6132 67.991 50.7037C68.0679 50.7942 68.1112 50.9169 68.1112 51.0449C68.1112 51.1729 68.0679 51.2956 67.991 51.3861C67.9141 51.4766 67.8097 51.5275 67.7009 51.5275ZM67.7009 61.1792H47.1717C47.0628 61.1792 46.9585 61.1284 46.8816 61.0378C46.8046 60.9473 46.7614 60.8246 46.7614 60.6966C46.7614 60.5686 46.8046 60.4459 46.8816 60.3554C46.9585 60.2649 47.0628 60.214 47.1717 60.214H67.7009C67.8097 60.214 67.9141 60.2649 67.991 60.3554C68.0679 60.4459 68.1112 60.5686 68.1112 60.6966C68.1112 60.8246 68.0679 60.9473 67.991 61.0378C67.9141 61.1284 67.8097 61.1792 67.7009 61.1792ZM67.7009 70.8309H47.1717C47.0628 70.8309 46.9585 70.7801 46.8816 70.6896C46.8046 70.5991 46.7614 70.4763 46.7614 70.3483C46.7614 70.2203 46.8046 70.0976 46.8816 70.0071C46.9585 69.9166 47.0628 69.8657 47.1717 69.8657H67.7009C67.8097 69.8657 67.9141 69.9166 67.991 70.0071C68.0679 70.0976 68.1112 70.2203 68.1112 70.3483C68.1112 70.4763 68.0679 70.5991 67.991 70.6896C67.9141 70.7801 67.8097 70.8309 67.7009 70.8309ZM67.7009 46.7914H47.1717C47.0628 46.7914 46.9585 46.7405 46.8816 46.65C46.8046 46.5595 46.7614 46.4368 46.7614 46.3088C46.7614 46.1808 46.8046 46.0581 46.8816 45.9676C46.9585 45.8771 47.0628 45.8262 47.1717 45.8262H67.7009C67.8097 45.8262 67.9141 45.8771 67.991 45.9676C68.0679 46.0581 68.1112 46.1808 68.1112 46.3088C68.1112 46.4368 68.0679 46.5595 67.991 46.65C67.9141 46.7405 67.8097 46.7914 67.7009 46.7914ZM67.7009 56.3533H47.1717C47.0628 56.3533 46.9585 56.3025 46.8816 56.212C46.8046 56.1215 46.7614 55.9987 46.7614 55.8708C46.7614 55.7428 46.8046 55.62 46.8816 55.5295C46.9585 55.439 47.0628 55.3882 47.1717 55.3882H67.7009C67.8097 55.3882 67.9141 55.439 67.991 55.5295C68.0679 55.62 68.1112 55.7428 68.1112 55.8708C68.1112 55.9987 68.0679 56.1215 67.991 56.212C67.9141 56.3025 67.8097 56.3533 67.7009 56.3533ZM67.7009 66.0051H47.1717C47.0628 66.0051 46.9585 65.9542 46.8816 65.8637C46.8046 65.7732 46.7614 65.6505 46.7614 65.5225C46.7614 65.3945 46.8046 65.2717 46.8816 65.1812C46.9585 65.0907 47.0628 65.0399 47.1717 65.0399H67.7009C67.8097 65.0399 67.9141 65.0907 67.991 65.1812C68.0679 65.2717 68.1112 65.3945 68.1112 65.5225C68.1112 65.6505 68.0679 65.7732 67.991 65.8637C67.9141 65.9542 67.8097 66.0051 67.7009 66.0051ZM73.8466 21.4195C73.8416 21.4195 73.8375 21.4166 73.8326 21.417C72.5649 21.4677 71.9651 22.9594 71.4359 24.2754C70.8837 25.6508 70.4566 26.545 69.7567 26.518C68.9817 26.4852 68.5387 25.4553 68.0693 24.3656C67.5302 23.1138 66.9149 21.6941 65.623 21.7471C64.3733 21.7973 63.7715 23.0955 63.2406 24.2407C62.6757 25.4606 62.2913 26.2024 61.5499 26.1681C60.7594 26.1343 60.3393 25.297 59.8531 24.328C59.3112 23.2489 58.6847 22.0357 57.4178 22.0772C56.1895 22.1269 55.586 23.2282 55.0535 24.2006C54.4902 25.2285 54.0956 25.8549 53.3448 25.8177C52.5353 25.784 52.1173 25.089 51.6336 24.2846C51.0904 23.3807 50.4783 22.3576 49.2151 22.4073C48.0139 22.4556 47.4104 23.358 46.8783 24.1533C46.3729 24.9081 45.9782 25.5055 45.1433 25.4679C45.0345 25.4633 44.9286 25.5097 44.8489 25.5969C44.7692 25.6842 44.7222 25.8051 44.7183 25.9331C44.7144 26.0611 44.7539 26.1856 44.828 26.2794C44.9022 26.3732 45.005 26.4284 45.1138 26.433C46.3515 26.4818 46.9784 25.5644 47.5228 24.7503C48.0057 24.0283 48.4225 23.4053 49.243 23.3725C50.0332 23.3329 50.4037 23.9106 50.9641 24.842C51.4962 25.727 52.1001 26.7308 53.3152 26.7824C54.5883 26.8326 55.2008 25.7135 55.7431 24.7232C56.2281 23.8382 56.6465 23.0742 57.4457 23.0419C58.1813 23.0096 58.5817 23.6934 59.1462 24.8183C59.6783 25.8785 60.281 27.0797 61.5204 27.1328C62.8024 27.1849 63.4215 25.8684 63.961 24.703C64.4283 23.6953 64.8693 22.7437 65.6509 22.7118C66.3864 22.6916 66.77 23.4815 67.3374 24.8014C67.8675 26.0335 68.4685 27.4291 69.7272 27.4827L69.7965 27.4841C71.0535 27.4841 71.65 26.0002 72.178 24.688C72.6453 23.525 73.0876 22.4295 73.8466 22.3846V21.4195Z" fill="black"/>
<path fill-rule="evenodd" clip-rule="evenodd" d="M32.8204 79.9997H49.2306V60.6963H32.8204V79.9997Z" fill="#3ECC5F"/>
<path d="M73.7472 29.9184L41.8381 39.9758C41.4004 40.1137 41.1406 40.643 41.2579 41.1579L44.3762 54.8471C44.4934 55.3619 44.9434 55.6675 45.3811 55.5295L77.2902 45.4721C77.7279 45.3342 77.9876 44.8049 77.8703 44.2901L74.7521 30.6009C74.6348 30.086 74.1849 29.7804 73.7472 29.9184Z" fill="#D8D8D8"/>
<path d="M51.4684 47.4701L50.326 47.8302C50.1071 47.8992 49.9772 48.1638 50.0359 48.4212L50.342 49.7651C50.4006 50.0225 50.6256 50.1753 50.8445 50.1063L51.9869 49.7463C52.2058 49.6773 52.3357 49.4127 52.277 49.1552L51.9709 47.8113C51.9123 47.5539 51.6873 47.4011 51.4684 47.4701Z" fill="#4A4A4A"/>
<path d="M53.7614 46.7474L52.6189 47.1075C52.4 47.1765 52.2702 47.4411 52.3288 47.6986L52.6349 49.0425C52.6936 49.2999 52.9185 49.4527 53.1374 49.3837L54.2799 49.0236C54.4987 48.9546 54.6286 48.69 54.57 48.4326L54.2638 47.0887C54.2052 46.8312 53.9802 46.6784 53.7614 46.7474Z" fill="#4A4A4A"/>
<path d="M56.0548 46.0248L54.9123 46.3849C54.6935 46.4538 54.5636 46.7185 54.6222 46.9759L54.9284 48.3198C54.987 48.5772 55.212 48.73 55.4308 48.661L56.5733 48.3009C56.7921 48.232 56.922 47.9673 56.8634 47.7099L56.5573 46.366C56.4986 46.1086 56.2737 45.9558 56.0548 46.0248Z" fill="#4A4A4A"/>
<path d="M58.3482 45.3021L57.2057 45.6622C56.9869 45.7312 56.857 45.9958 56.9156 46.2533L57.2218 47.5971C57.2804 47.8546 57.5054 48.0074 57.7242 47.9384L58.8667 47.5783C59.0855 47.5093 59.2154 47.2447 59.1568 46.9872L58.8507 45.6434C58.792 45.3859 58.5671 45.2331 58.3482 45.3021Z" fill="#4A4A4A"/>
<path d="M60.6412 44.5785L59.4987 44.9386C59.2798 45.0076 59.15 45.2722 59.2086 45.5296L59.5147 46.8735C59.5734 47.1309 59.7983 47.2837 60.0172 47.2147L61.1597 46.8547C61.3785 46.7857 61.5084 46.5211 61.4497 46.2636L61.1436 44.9197C61.085 44.6623 60.86 44.5095 60.6412 44.5785Z" fill="#4A4A4A"/>
<path d="M62.9346 43.8558L61.7921 44.2159C61.5733 44.2849 61.4434 44.5495 61.502 44.807L61.8081 46.1508C61.8668 46.4083 62.0918 46.5611 62.3106 46.4921L63.4531 46.132C63.6719 46.063 63.8018 45.7984 63.7432 45.541L63.4371 44.1971C63.3784 43.9396 63.1534 43.7868 62.9346 43.8558Z" fill="#4A4A4A"/>
<path d="M65.228 43.1332L64.0855 43.4933C63.8667 43.5622 63.7368 43.8269 63.7954 44.0843L64.1015 45.4282C64.1602 45.6856 64.3851 45.8384 64.604 45.7694L65.7465 45.4093C65.9653 45.3404 66.0952 45.0757 66.0366 44.8183L65.7304 43.4744C65.6718 43.217 65.4468 43.0642 65.228 43.1332Z" fill="#4A4A4A"/>
<path d="M67.5212 42.4105L66.3787 42.7706C66.1599 42.8396 66.03 43.1042 66.0886 43.3616L66.3948 44.7055C66.4534 44.963 66.6784 45.1158 66.8972 45.0468L68.0397 44.6867C68.2585 44.6177 68.3884 44.3531 68.3298 44.0956L68.0237 42.7518C67.965 42.4943 67.7401 42.3415 67.5212 42.4105Z" fill="#4A4A4A"/>
<path d="M69.8146 41.6879L68.6721 42.0479C68.4533 42.1169 68.3234 42.3816 68.382 42.639L68.6882 43.9829C68.7468 44.2403 68.9718 44.3931 69.1906 44.3241L70.3331 43.964C70.5519 43.895 70.6818 43.6304 70.6232 43.373L70.3171 42.0291C70.2584 41.7717 70.0335 41.6189 69.8146 41.6879Z" fill="#4A4A4A"/>
<path fill-rule="evenodd" clip-rule="evenodd" d="M44.2349 49.7506L49.1036 48.216C49.2087 48.1829 49.3206 48.2002 49.4149 48.2642C49.5091 48.3282 49.5779 48.4336 49.606 48.5573L49.912 49.9007C49.9402 50.0243 49.9254 50.156 49.871 50.2669C49.8166 50.3777 49.727 50.4586 49.6219 50.4917L44.7533 52.0263C44.6482 52.0594 44.5362 52.0421 44.442 51.9781C44.3477 51.9141 44.279 51.8087 44.2508 51.685L43.9447 50.3411C43.9165 50.2175 43.9313 50.0858 43.9857 49.9749C44.0401 49.8641 44.1297 49.7832 44.2348 49.7501L44.2349 49.7506ZM71.0367 41.3029L75.9058 39.7682C76.0109 39.7351 76.1229 39.7525 76.2171 39.8165C76.3113 39.8805 76.3801 39.9859 76.4083 40.1095L76.7143 41.4529C76.7424 41.5765 76.7277 41.7083 76.6733 41.8191C76.6189 41.9299 76.5293 42.0108 76.4242 42.044L71.5547 43.5788C71.4496 43.6119 71.3376 43.5945 71.2434 43.5305C71.1492 43.4665 71.0804 43.3611 71.0523 43.2375L70.7461 41.8936C70.718 41.77 70.7327 41.6383 70.7871 41.5274C70.8415 41.4166 70.9311 41.3357 71.0362 41.3026L71.0367 41.3029Z" fill="#4A4A4A"/>
<path fill-rule="evenodd" clip-rule="evenodd" d="M42.9944 44.3028L44.853 43.717C44.9581 43.6839 45.07 43.7013 45.1643 43.7653C45.2585 43.8292 45.3273 43.9347 45.3554 44.0583L45.6614 45.4017C45.6896 45.5253 45.6749 45.6571 45.6205 45.7679C45.5661 45.8787 45.4764 45.9596 45.3713 45.9927L43.5128 46.5785C43.4077 46.6117 43.2957 46.5943 43.2015 46.5303C43.1073 46.4663 43.0385 46.3609 43.0103 46.2373L42.7043 44.8939C42.6762 44.7702 42.6909 44.6385 42.7453 44.5277C42.7997 44.4168 42.8893 44.336 42.9944 44.3028Z" fill="#4A4A4A"/>
<path d="M47.1466 42.9945L46.0042 43.3546C45.7853 43.4236 45.6554 43.6882 45.7141 43.9456L46.0202 45.2895C46.0788 45.547 46.3038 45.6997 46.5226 45.6308L47.6651 45.2707C47.884 45.2017 48.0139 44.9371 47.9552 44.6796L47.6491 43.3357C47.5904 43.0783 47.3655 42.9255 47.1466 42.9945Z" fill="#4A4A4A"/>
<path d="M49.4402 42.2709L48.2978 42.631C48.0789 42.6999 47.949 42.9646 48.0077 43.222L48.3138 44.5659C48.3724 44.8233 48.5974 44.9761 48.8163 44.9071L49.9587 44.547C50.1776 44.4781 50.3075 44.2134 50.2488 43.956L49.9427 42.6121C49.8841 42.3547 49.6591 42.2019 49.4402 42.2709Z" fill="#4A4A4A"/>
<path d="M51.7332 41.5482L50.5907 41.9083C50.3719 41.9773 50.242 42.2419 50.3006 42.4993L50.6068 43.8432C50.6654 44.1007 50.8904 44.2535 51.1092 44.1845L52.2517 43.8244C52.4706 43.7554 52.6004 43.4908 52.5418 43.2333L52.2357 41.8894C52.177 41.632 51.9521 41.4792 51.7332 41.5482Z" fill="#4A4A4A"/>
<path d="M54.0266 40.8256L52.8842 41.1856C52.6653 41.2546 52.5354 41.5192 52.5941 41.7767L52.9002 43.1206C52.9588 43.378 53.1838 43.5308 53.4027 43.4618L54.5451 43.1017C54.764 43.0327 54.8939 42.7681 54.8352 42.5107L54.5291 41.1668C54.4704 40.9093 54.2455 40.7566 54.0266 40.8256Z" fill="#4A4A4A"/>
<path d="M56.3203 40.1029L55.1778 40.463C54.9589 40.532 54.8291 40.7966 54.8877 41.054L55.1938 42.3979C55.2525 42.6554 55.4774 42.8081 55.6963 42.7392L56.8388 42.3791C57.0576 42.3101 57.1875 42.0455 57.1289 41.788L56.8227 40.4441C56.7641 40.1867 56.5391 40.0339 56.3203 40.1029Z" fill="#4A4A4A"/>
<path d="M58.613 39.3802L57.4705 39.7403C57.2517 39.8093 57.1218 40.0739 57.1804 40.3314L57.4866 41.6753C57.5452 41.9327 57.7702 42.0855 57.989 42.0165L59.1315 41.6564C59.3503 41.5874 59.4802 41.3228 59.4216 41.0654L59.1155 39.7215C59.0568 39.464 58.8319 39.3113 58.613 39.3802Z" fill="#4A4A4A"/>
<path d="M60.9064 38.6576L59.764 39.0177C59.5451 39.0867 59.4152 39.3513 59.4739 39.6087L59.78 40.9526C59.8386 41.21 60.0636 41.3628 60.2824 41.2938L61.4249 40.9338C61.6438 40.8648 61.7736 40.6002 61.715 40.3427L61.4089 38.9988C61.3502 38.7414 61.1253 38.5886 60.9064 38.6576Z" fill="#4A4A4A"/>
<path d="M63.1994 37.9349L62.0569 38.295C61.838 38.364 61.7082 38.6286 61.7668 38.8861L62.0729 40.23C62.1316 40.4874 62.3565 40.6402 62.5754 40.5712L63.7178 40.2111C63.9367 40.1421 64.0666 39.8775 64.0079 39.6201L63.7018 38.2762C63.6432 38.0187 63.4182 37.8659 63.1994 37.9349Z" fill="#4A4A4A"/>
<path d="M65.4923 37.2123L64.3499 37.5724C64.131 37.6413 64.0011 37.906 64.0598 38.1634L64.3659 39.5073C64.4245 39.7647 64.6495 39.9175 64.8683 39.8485L66.0108 39.4884C66.2297 39.4195 66.3596 39.1548 66.3009 38.8974L65.9948 37.5535C65.9361 37.2961 65.7112 37.1433 65.4923 37.2123Z" fill="#4A4A4A"/>
<path d="M67.7858 36.4886L66.6433 36.8487C66.4244 36.9177 66.2945 37.1823 66.3532 37.4398L66.6593 38.7837C66.718 39.0411 66.9429 39.1939 67.1618 39.1249L68.3042 38.7648C68.5231 38.6958 68.653 38.4312 68.5943 38.1738L68.2882 36.8299C68.2296 36.5724 68.0046 36.4197 67.7858 36.4886Z" fill="#4A4A4A"/>
<path d="M70.0792 35.766L68.9367 36.1261C68.7178 36.1951 68.5879 36.4597 68.6466 36.7171L68.9527 38.061C69.0114 38.3184 69.2363 38.4712 69.4552 38.4022L70.5976 38.0422C70.8165 37.9732 70.9464 37.7086 70.8877 37.4511L70.5816 36.1072C70.523 35.8498 70.298 35.697 70.0792 35.766Z" fill="#4A4A4A"/>
<path d="M72.3723 35.0433L71.2299 35.4034C71.011 35.4724 70.8811 35.737 70.9398 35.9945L71.2459 37.3383C71.3045 37.5958 71.5295 37.7486 71.7484 37.6796L72.8908 37.3195C73.1097 37.2505 73.2396 36.9859 73.1809 36.7285L72.8748 35.3846C72.8162 35.1271 72.5912 34.9743 72.3723 35.0433Z" fill="#4A4A4A"/>
<path d="M74.6658 34.3207L73.5233 34.6808C73.3044 34.7497 73.1746 35.0144 73.2332 35.2718L73.5393 36.6157C73.598 36.8731 73.8229 37.0259 74.0418 36.9569L75.1842 36.5968C75.4031 36.5279 75.533 36.2632 75.4743 36.0058L75.1682 34.6619C75.1096 34.4045 74.8846 34.2517 74.6658 34.3207Z" fill="#4A4A4A"/>
<path fill-rule="evenodd" clip-rule="evenodd" d="M74.596 34.0155L72.7371 34.6014C72.632 34.6346 72.52 34.6172 72.4258 34.5532C72.3316 34.4892 72.2628 34.3838 72.2346 34.2602L71.9285 32.9163C71.9003 32.7927 71.9151 32.661 71.9695 32.5501C72.0239 32.4393 72.1135 32.3584 72.2186 32.3253L74.0775 31.7394C74.1826 31.7062 74.2946 31.7236 74.3889 31.7876C74.4831 31.8516 74.5518 31.957 74.58 32.0806L74.8861 33.4245C74.9143 33.5481 74.8995 33.6798 74.8451 33.7907C74.7907 33.9015 74.7011 33.9824 74.596 34.0155Z" fill="#4A4A4A"/>
<path d="M70.4441 35.3239L71.5865 34.9638C71.8054 34.8948 71.9353 34.6302 71.8766 34.3727L71.5705 33.0288C71.5119 32.7714 71.2869 32.6186 71.0681 32.6876L69.9256 33.0477C69.7067 33.1167 69.5768 33.3813 69.6355 33.6387L69.9416 34.9826C70.0003 35.2401 70.2252 35.3928 70.4441 35.3239Z" fill="#4A4A4A"/>
<path d="M68.1509 36.0475L69.2934 35.6874C69.5122 35.6184 69.6421 35.3538 69.5835 35.0964L69.2773 33.7525C69.2187 33.495 68.9937 33.3423 68.7749 33.4112L67.6324 33.7713C67.4135 33.8403 67.2837 34.1049 67.3423 34.3624L67.6484 35.7063C67.7071 35.9637 67.932 36.1165 68.1509 36.0475Z" fill="#4A4A4A"/>
<path d="M65.8575 36.7702L67 36.4101C67.2188 36.3411 67.3487 36.0765 67.2901 35.819L66.9839 34.4751C66.9253 34.2177 66.7003 34.0649 66.4815 34.1339L65.339 34.494C65.1201 34.563 64.9903 34.8276 65.0489 35.085L65.355 36.4289C65.4137 36.6864 65.6386 36.8391 65.8575 36.7702Z" fill="#4A4A4A"/>
<path d="M63.5641 37.4928L64.7065 37.1327C64.9254 37.0637 65.0553 36.7991 64.9966 36.5417L64.6905 35.1978C64.6319 34.9403 64.4069 34.7876 64.188 34.8565L63.0456 35.2166C62.8267 35.2856 62.6968 35.5502 62.7555 35.8077L63.0616 37.1516C63.1202 37.409 63.3452 37.5618 63.5641 37.4928Z" fill="#4A4A4A"/>
<path d="M61.2713 38.2155L62.4138 37.8554C62.6327 37.7864 62.7625 37.5218 62.7039 37.2643L62.3978 35.9204C62.3391 35.663 62.1142 35.5102 61.8953 35.5792L60.7529 35.9393C60.534 36.0083 60.4041 36.2729 60.4628 36.5303L60.7689 37.8742C60.8275 38.1317 61.0525 38.2844 61.2713 38.2155Z" fill="#4A4A4A"/>
<path d="M58.9777 38.9381L60.1202 38.578C60.339 38.509 60.4689 38.2444 60.4103 37.987L60.1041 36.6431C60.0455 36.3857 59.8205 36.2329 59.6017 36.3019L58.4592 36.662C58.2404 36.7309 58.1105 36.9956 58.1691 37.253L58.4752 38.5969C58.5339 38.8543 58.7588 39.0071 58.9777 38.9381Z" fill="#4A4A4A"/>
<path d="M56.6843 39.6608L57.8267 39.3007C58.0456 39.2317 58.1755 38.9671 58.1168 38.7096L57.8107 37.3658C57.7521 37.1083 57.5271 36.9555 57.3083 37.0245L56.1658 37.3846C55.9469 37.4536 55.817 37.7182 55.8757 37.9757L56.1818 39.3195C56.2405 39.577 56.4654 39.7298 56.6843 39.6608Z" fill="#4A4A4A"/>
<path d="M54.3916 40.3834L55.534 40.0233C55.7529 39.9544 55.8828 39.6897 55.8241 39.4323L55.518 38.0884C55.4593 37.831 55.2344 37.6782 55.0155 37.7472L53.8731 38.1073C53.6542 38.1762 53.5243 38.4409 53.583 38.6983L53.8891 40.0422C53.9477 40.2996 54.1727 40.4524 54.3916 40.3834Z" fill="#4A4A4A"/>
<path d="M52.0979 41.1071L53.2404 40.747C53.4592 40.678 53.5891 40.4134 53.5305 40.1559L53.2244 38.812C53.1657 38.5546 52.9407 38.4018 52.7219 38.4708L51.5794 38.8309C51.3606 38.8999 51.2307 39.1645 51.2893 39.4219L51.5955 40.7658C51.6541 41.0233 51.8791 41.176 52.0979 41.1071Z" fill="#4A4A4A"/>
<path d="M49.8049 41.8297L50.9474 41.4696C51.1663 41.4006 51.2961 41.136 51.2375 40.8786L50.9314 39.5347C50.8727 39.2773 50.6478 39.1245 50.4289 39.1935L49.2865 39.5536C49.0676 39.6225 48.9377 39.8872 48.9964 40.1446L49.3025 41.4885C49.3611 41.7459 49.5861 41.8987 49.8049 41.8297Z" fill="#4A4A4A"/>
<path d="M47.5115 42.5524L48.654 42.1923C48.8729 42.1233 49.0028 41.8587 48.9441 41.6012L48.638 40.2574C48.5793 39.9999 48.3544 39.8471 48.1355 39.9161L46.9931 40.2762C46.7742 40.3452 46.6443 40.6098 46.703 40.8673L47.0091 42.2111C47.0677 42.4686 47.2927 42.6214 47.5115 42.5524Z" fill="#4A4A4A"/>
<path d="M45.2179 43.275L46.3604 42.9149C46.5792 42.846 46.7091 42.5813 46.6505 42.3239L46.3443 40.98C46.2857 40.7226 46.0607 40.5698 45.8419 40.6388L44.6994 40.9989C44.4806 41.0678 44.3507 41.3325 44.4093 41.5899L44.7154 42.9338C44.7741 43.1912 44.999 43.344 45.2179 43.275Z" fill="#4A4A4A"/>
<path d="M42.9252 43.9977L44.0676 43.6376C44.2865 43.5686 44.4164 43.304 44.3577 43.0466L44.0516 41.7027C43.9929 41.4452 43.768 41.2924 43.5491 41.3614L42.4067 41.7215C42.1878 41.7905 42.0579 42.0551 42.1166 42.3126L42.4227 43.6565C42.4813 43.9139 42.7063 44.0667 42.9252 43.9977Z" fill="#4A4A4A"/>
<path d="M70.4441 35.3239L71.5865 34.9638C71.8054 34.8948 71.9353 34.6302 71.8766 34.3727L71.5705 33.0288C71.5119 32.7714 71.2869 32.6186 71.0681 32.6876L69.9256 33.0477C69.7067 33.1167 69.5768 33.3813 69.6355 33.6387L69.9416 34.9826C70.0003 35.2401 70.2252 35.3928 70.4441 35.3239Z" fill="#4A4A4A"/>
<path d="M68.1509 36.0475L69.2934 35.6874C69.5122 35.6184 69.6421 35.3538 69.5835 35.0964L69.2773 33.7525C69.2187 33.495 68.9937 33.3423 68.7749 33.4112L67.6324 33.7713C67.4135 33.8403 67.2837 34.1049 67.3423 34.3624L67.6484 35.7063C67.7071 35.9637 67.932 36.1165 68.1509 36.0475Z" fill="#4A4A4A"/>
<path d="M65.8575 36.7702L67 36.4101C67.2188 36.3411 67.3487 36.0765 67.2901 35.819L66.9839 34.4751C66.9253 34.2177 66.7003 34.0649 66.4815 34.1339L65.339 34.494C65.1201 34.563 64.9903 34.8276 65.0489 35.085L65.355 36.4289C65.4137 36.6864 65.6386 36.8391 65.8575 36.7702Z" fill="#4A4A4A"/>
<path d="M63.5641 37.4928L64.7065 37.1327C64.9254 37.0637 65.0553 36.7991 64.9966 36.5417L64.6905 35.1978C64.6319 34.9403 64.4069 34.7876 64.188 34.8565L63.0456 35.2166C62.8267 35.2856 62.6968 35.5502 62.7555 35.8077L63.0616 37.1516C63.1202 37.409 63.3452 37.5618 63.5641 37.4928Z" fill="#4A4A4A"/>
<path d="M61.2713 38.2155L62.4138 37.8554C62.6327 37.7864 62.7625 37.5218 62.7039 37.2643L62.3978 35.9204C62.3391 35.663 62.1142 35.5102 61.8953 35.5792L60.7529 35.9393C60.534 36.0083 60.4041 36.2729 60.4628 36.5303L60.7689 37.8742C60.8275 38.1317 61.0525 38.2844 61.2713 38.2155Z" fill="#4A4A4A"/>
<path d="M58.9777 38.9381L60.1202 38.578C60.339 38.509 60.4689 38.2444 60.4103 37.987L60.1041 36.6431C60.0455 36.3857 59.8205 36.2329 59.6017 36.3019L58.4592 36.662C58.2404 36.7309 58.1105 36.9956 58.1691 37.253L58.4752 38.5969C58.5339 38.8543 58.7588 39.0071 58.9777 38.9381Z" fill="#4A4A4A"/>
<path d="M56.6843 39.6608L57.8267 39.3007C58.0456 39.2317 58.1755 38.9671 58.1168 38.7096L57.8107 37.3658C57.7521 37.1083 57.5271 36.9555 57.3083 37.0245L56.1658 37.3846C55.9469 37.4536 55.817 37.7182 55.8757 37.9757L56.1818 39.3195C56.2405 39.577 56.4654 39.7298 56.6843 39.6608Z" fill="#4A4A4A"/>
<path d="M54.3916 40.3834L55.534 40.0233C55.7529 39.9544 55.8828 39.6897 55.8241 39.4323L55.518 38.0884C55.4593 37.831 55.2344 37.6782 55.0155 37.7472L53.8731 38.1073C53.6542 38.1762 53.5243 38.4409 53.583 38.6983L53.8891 40.0422C53.9477 40.2996 54.1727 40.4524 54.3916 40.3834Z" fill="#4A4A4A"/>
<path d="M52.0979 41.1071L53.2404 40.747C53.4592 40.678 53.5891 40.4134 53.5305 40.1559L53.2244 38.812C53.1657 38.5546 52.9407 38.4018 52.7219 38.4708L51.5794 38.8309C51.3606 38.8999 51.2307 39.1645 51.2893 39.4219L51.5955 40.7658C51.6541 41.0233 51.8791 41.176 52.0979 41.1071Z" fill="#4A4A4A"/>
<path d="M49.8049 41.8297L50.9474 41.4696C51.1663 41.4006 51.2961 41.136 51.2375 40.8786L50.9314 39.5347C50.8727 39.2773 50.6478 39.1245 50.4289 39.1935L49.2865 39.5536C49.0676 39.6225 48.9377 39.8872 48.9964 40.1446L49.3025 41.4885C49.3611 41.7459 49.5861 41.8987 49.8049 41.8297Z" fill="#4A4A4A"/>
<path d="M47.5115 42.5524L48.654 42.1923C48.8729 42.1233 49.0028 41.8587 48.9441 41.6012L48.638 40.2574C48.5793 39.9999 48.3544 39.8471 48.1355 39.9161L46.9931 40.2762C46.7742 40.3452 46.6443 40.6098 46.703 40.8673L47.0091 42.2111C47.0677 42.4686 47.2927 42.6214 47.5115 42.5524Z" fill="#4A4A4A"/>
<path d="M45.2179 43.275L46.3604 42.9149C46.5792 42.846 46.7091 42.5813 46.6505 42.3239L46.3443 40.98C46.2857 40.7226 46.0607 40.5698 45.8419 40.6388L44.6994 40.9989C44.4806 41.0678 44.3507 41.3325 44.4093 41.5899L44.7154 42.9338C44.7741 43.1912 44.999 43.344 45.2179 43.275Z" fill="#4A4A4A"/>
<path d="M42.9252 43.9977L44.0676 43.6376C44.2865 43.5686 44.4164 43.304 44.3577 43.0466L44.0516 41.7027C43.9929 41.4452 43.768 41.2924 43.5491 41.3614L42.4067 41.7215C42.1878 41.7905 42.0579 42.0551 42.1166 42.3126L42.4227 43.6565C42.4813 43.9139 42.7063 44.0667 42.9252 43.9977Z" fill="#4A4A4A"/>
<path fill-rule="evenodd" clip-rule="evenodd" d="M43.6085 47.0001L46.2557 46.1658C46.3608 46.1326 46.4727 46.15 46.567 46.214C46.6612 46.278 46.73 46.3834 46.7581 46.507L47.0642 47.8509C47.0924 47.9745 47.0777 48.1062 47.0233 48.2171C46.9689 48.3279 46.8793 48.4088 46.7742 48.4419L44.127 49.2763C44.0219 49.3094 43.9099 49.2921 43.8157 49.2281C43.7215 49.1641 43.6527 49.0587 43.6246 48.935L43.3185 47.5916C43.2904 47.468 43.3051 47.3363 43.3595 47.2254C43.4139 47.1146 43.5035 47.0337 43.6086 47.0006L43.6085 47.0001Z" fill="#4A4A4A"/>
<path d="M48.6205 45.4203L47.478 45.7804C47.2591 45.8494 47.1293 46.114 47.1879 46.3714L47.494 47.7153C47.5527 47.9727 47.7776 48.1255 47.9965 48.0565L49.139 47.6964C49.3578 47.6275 49.4877 47.3628 49.4291 47.1054L49.1229 45.7615C49.0643 45.5041 48.8393 45.3513 48.6205 45.4203Z" fill="#4A4A4A"/>
<path d="M50.9142 44.6976L49.7717 45.0577C49.5528 45.1267 49.423 45.3913 49.4816 45.6488L49.7877 46.9926C49.8464 47.2501 50.0713 47.4029 50.2902 47.3339L51.4327 46.9738C51.6515 46.9048 51.7814 46.6402 51.7228 46.3827L51.4166 45.0389C51.358 44.7814 51.133 44.6286 50.9142 44.6976Z" fill="#4A4A4A"/>
<path d="M53.2071 43.975L52.0647 44.3351C51.8458 44.404 51.7159 44.6687 51.7746 44.9261L52.0807 46.27C52.1393 46.5274 52.3643 46.6802 52.5832 46.6112L53.7256 46.2511C53.9445 46.1822 54.0744 45.9175 54.0157 45.6601L53.7096 44.3162C53.651 44.0588 53.426 43.906 53.2071 43.975Z" fill="#4A4A4A"/>
<path d="M55.5006 43.2523L54.3581 43.6124C54.1392 43.6814 54.0094 43.946 54.068 44.2034L54.3741 45.5473C54.4328 45.8048 54.6577 45.9576 54.8766 45.8886L56.0191 45.5285C56.2379 45.4595 56.3678 45.1949 56.3092 44.9374L56.003 43.5935C55.9444 43.3361 55.7194 43.1833 55.5006 43.2523Z" fill="#4A4A4A"/>
<path d="M57.7935 42.5287L56.6511 42.8888C56.4322 42.9578 56.3023 43.2224 56.361 43.4798L56.6671 44.8237C56.7257 45.0811 56.9507 45.2339 57.1696 45.1649L58.312 44.8048C58.5309 44.7359 58.6608 44.4712 58.6021 44.2138L58.296 42.8699C58.2374 42.6125 58.0124 42.4597 57.7935 42.5287Z" fill="#4A4A4A"/>
<path d="M60.0869 41.806L58.9445 42.1661C58.7256 42.2351 58.5957 42.4997 58.6544 42.7572L58.9605 44.101C59.0191 44.3585 59.2441 44.5113 59.463 44.4423L60.6054 44.0822C60.8243 44.0132 60.9542 43.7486 60.8955 43.4911L60.5894 42.1473C60.5308 41.8898 60.3058 41.737 60.0869 41.806Z" fill="#4A4A4A"/>
<path d="M62.3804 41.0834L61.2379 41.4435C61.019 41.5124 60.8892 41.7771 60.9478 42.0345L61.2539 43.3784C61.3126 43.6358 61.5375 43.7886 61.7564 43.7196L62.8988 43.3595C63.1177 43.2906 63.2476 43.0259 63.1889 42.7685L62.8828 41.4246C62.8242 41.1672 62.5992 41.0144 62.3804 41.0834Z" fill="#4A4A4A"/>
<path d="M64.6733 40.3607L63.5308 40.7208C63.312 40.7898 63.1821 41.0544 63.2407 41.3118L63.5469 42.6557C63.6055 42.9132 63.8305 43.066 64.0493 42.997L65.1918 42.6369C65.4106 42.5679 65.5405 42.3033 65.4819 42.0458L65.1758 40.7019C65.1171 40.4445 64.8922 40.2917 64.6733 40.3607Z" fill="#4A4A4A"/>
<path d="M66.9663 39.6381L65.8238 39.9981C65.6049 40.0671 65.4751 40.3317 65.5337 40.5892L65.8398 41.9331C65.8985 42.1905 66.1234 42.3433 66.3423 42.2743L67.4848 41.9142C67.7036 41.8452 67.8335 41.5806 67.7749 41.3232L67.4687 39.9793C67.4101 39.7218 67.1851 39.5691 66.9663 39.6381Z" fill="#4A4A4A"/>
<path d="M69.2597 38.9154L68.1172 39.2755C67.8984 39.3445 67.7685 39.6091 67.8271 39.8665L68.1333 41.2104C68.1919 41.4679 68.4169 41.6206 68.6357 41.5517L69.7782 41.1916C69.997 41.1226 70.1269 40.858 70.0683 40.6005L69.7622 39.2566C69.7035 38.9992 69.4786 38.8464 69.2597 38.9154Z" fill="#4A4A4A"/>
<path d="M71.5531 38.1927L70.4106 38.5528C70.1918 38.6218 70.0619 38.8864 70.1205 39.1439L70.4266 40.4878C70.4853 40.7452 70.7103 40.898 70.9291 40.829L72.0716 40.4689C72.2904 40.3999 72.4203 40.1353 72.3617 39.8779L72.0555 38.534C71.9969 38.2765 71.7719 38.1238 71.5531 38.1927Z" fill="#4A4A4A"/>
<path fill-rule="evenodd" clip-rule="evenodd" d="M72.7761 37.8066L75.2797 37.0175C75.3848 36.9844 75.4968 37.0017 75.5911 37.0657C75.6853 37.1297 75.754 37.2351 75.7822 37.3587L76.0883 38.7026C76.1165 38.8262 76.1018 38.958 76.0473 39.0688C75.9929 39.1796 75.9033 39.2605 75.7982 39.2937L73.2942 40.0829C73.1891 40.116 73.0771 40.0987 72.9828 40.0347C72.8886 39.9707 72.8199 39.8653 72.7917 39.7417L72.4857 38.3982C72.4575 38.2746 72.4723 38.1429 72.5267 38.0321C72.5811 37.9212 72.6707 37.8403 72.7758 37.8072L72.7761 37.8066Z" fill="#4A4A4A"/>
<path d="M46.0188 52.2035L44.8763 52.5636C44.6575 52.6326 44.5276 52.8972 44.5862 53.1546L44.8923 54.4985C44.951 54.7559 45.1759 54.9087 45.3948 54.8397L46.5373 54.4797C46.7561 54.4107 46.886 54.146 46.8274 53.8886L46.5212 52.5447C46.4626 52.2873 46.2376 52.1345 46.0188 52.2035Z" fill="#4A4A4A"/>
<path d="M48.3124 51.4808L47.1699 51.8409C46.951 51.9099 46.8212 52.1745 46.8798 52.432L47.1859 53.7758C47.2446 54.0333 47.4695 54.1861 47.6884 54.1171L48.8309 53.757C49.0497 53.688 49.1796 53.4234 49.121 53.166L48.8148 51.8221C48.7562 51.5646 48.5312 51.4118 48.3124 51.4808Z" fill="#4A4A4A"/>
<path d="M50.6051 50.7582L49.4626 51.1183C49.2438 51.1872 49.1139 51.4519 49.1725 51.7093L49.4787 53.0532C49.5373 53.3106 49.7623 53.4634 49.9811 53.3944L51.1236 53.0343C51.3424 52.9654 51.4723 52.7007 51.4137 52.4433L51.1076 51.0994C51.0489 50.842 50.824 50.6892 50.6051 50.7582Z" fill="#4A4A4A"/>
<path d="M52.8987 50.0355L51.7563 50.3956C51.5374 50.4646 51.4075 50.7292 51.4662 50.9866L51.7723 52.3305C51.8309 52.588 52.0559 52.7408 52.2748 52.6718L53.4172 52.3117C53.6361 52.2427 53.766 51.9781 53.7073 51.7206L53.4012 50.3768C53.3425 50.1193 53.1176 49.9665 52.8987 50.0355Z" fill="#4A4A4A"/>
<path fill-rule="evenodd" clip-rule="evenodd" d="M54.049 49.672L65.0814 46.1947C65.1865 46.1616 65.2985 46.1789 65.3927 46.2429C65.4869 46.3069 65.5557 46.4123 65.5839 46.5359L65.8901 47.8803C65.9182 48.0039 65.9035 48.1356 65.8491 48.2465C65.7947 48.3573 65.7051 48.4382 65.6 48.4713L54.5676 51.9486C54.4625 51.9817 54.3505 51.9644 54.2563 51.9004C54.1621 51.8364 54.0933 51.731 54.0652 51.6074L53.7589 50.263C53.7308 50.1394 53.7455 50.0077 53.7999 49.8968C53.8543 49.786 53.9439 49.7051 54.049 49.672ZM66.2318 45.8321L67.6612 45.3816C67.7663 45.3485 67.8782 45.3658 67.9725 45.4298C68.0667 45.4938 68.1355 45.5992 68.1636 45.7228L68.4698 47.0672C68.498 47.1908 68.4833 47.3225 68.4289 47.4334C68.3745 47.5442 68.2849 47.6251 68.1798 47.6582L66.7504 48.1087C66.6453 48.1419 66.5333 48.1245 66.4391 48.0605C66.3448 47.9965 66.2761 47.8911 66.2479 47.7675L65.9417 46.4231C65.9135 46.2995 65.9283 46.1678 65.9827 46.0569C66.0371 45.9461 66.1267 45.8652 66.2318 45.8321Z" fill="#4A4A4A"/>
<path d="M69.9544 44.6595L68.8119 45.0196C68.5931 45.0886 68.4632 45.3532 68.5218 45.6107L68.828 46.9546C68.8866 47.212 69.1116 47.3648 69.3304 47.2958L70.4729 46.9357C70.6917 46.8667 70.8216 46.6021 70.763 46.3447L70.4569 45.0008C70.3982 44.7433 70.1733 44.5906 69.9544 44.6595Z" fill="#4A4A4A"/>
<path d="M72.2478 43.9369L71.1054 44.297C70.8865 44.366 70.7566 44.6306 70.8153 44.888L71.1214 46.2319C71.18 46.4893 71.405 46.6421 71.6238 46.5731L72.7663 46.213C72.9852 46.1441 73.115 45.8794 73.0564 45.622L72.7503 44.2781C72.6916 44.0207 72.4667 43.8679 72.2478 43.9369Z" fill="#4A4A4A"/>
<path d="M76.5473 42.5814L75.4048 42.9415C75.1859 43.0105 75.0561 43.2751 75.1147 43.5325L75.4208 44.8764C75.4795 45.1339 75.7044 45.2867 75.9233 45.2177L77.0657 44.8576C77.2846 44.7886 77.4145 44.524 77.3558 44.2665L77.0497 42.9227C76.9911 42.6652 76.7661 42.5124 76.5473 42.5814Z" fill="#4A4A4A"/>
<path d="M73.0789 44.7134L72.9642 44.21C72.9361 44.0864 72.9508 43.9546 73.0052 43.8438C73.0596 43.7329 73.1492 43.6521 73.2543 43.6189L74.3968 43.2588C74.5019 43.2257 74.6139 43.2431 74.7081 43.3071C74.8023 43.371 74.8711 43.4765 74.8992 43.6001L75.0139 44.1035L73.0789 44.7134Z" fill="#4A4A4A"/>
<path d="M75.0915 44.4409L75.2062 44.9443C75.2344 45.0679 75.2196 45.1997 75.1652 45.3105C75.1108 45.4214 75.0212 45.5022 74.9161 45.5354L73.7737 45.8955C73.6686 45.9286 73.5566 45.9112 73.4624 45.8472C73.3681 45.7832 73.2994 45.6778 73.2712 45.5542L73.1565 45.0508L75.0915 44.4409Z" fill="#4A4A4A"/>
<path d="M73.6764 30.476L42.2876 40.3694C42.0501 40.4442 41.9092 40.7313 41.9728 41.0106C42.0365 41.29 42.2806 41.4557 42.518 41.3809L73.9068 31.4875C74.1442 31.4127 74.2852 31.1255 74.2215 30.8462C74.1579 30.5669 73.9138 30.4011 73.6764 30.476Z" fill="#4A4A4A"/>
<path opacity="0.136" d="M44.2062 39.9452L42.971 40.3345C42.8128 40.3844 42.7188 40.5757 42.7612 40.7618L42.7614 40.7623C42.8038 40.9484 42.9664 41.0589 43.1246 41.009L44.3598 40.6197C44.5181 40.5698 44.612 40.3785 44.5696 40.1924L44.5695 40.1919C44.5271 40.0058 44.3644 39.8953 44.2062 39.9452Z" fill="#D8D8D8"/>
<path opacity="0.136" d="M46.6806 39.1659L45.4454 39.5552C45.2872 39.6051 45.1933 39.7964 45.2357 39.9825L45.2358 39.983C45.2782 40.1691 45.4408 40.2796 45.5991 40.2297L46.8343 39.8404C46.9925 39.7905 47.0864 39.5992 47.044 39.4131L47.0439 39.4126C47.0015 39.2265 46.8388 39.116 46.6806 39.1659Z" fill="#D8D8D8"/>
<path opacity="0.136" d="M48.5843 38.5653L47.3491 38.9546C47.1909 39.0045 47.097 39.1958 47.1394 39.3819L47.1395 39.3824C47.1819 39.5685 47.3445 39.679 47.5028 39.6291L48.738 39.2398C48.8962 39.1899 48.9901 38.9986 48.9477 38.8125L48.9476 38.812C48.9052 38.6259 48.7426 38.5154 48.5843 38.5653Z" fill="#D8D8D8"/>
<path opacity="0.136" d="M50.4878 37.9657L49.2526 38.355C49.0944 38.4049 49.0005 38.5962 49.0429 38.7823L49.043 38.7828C49.0854 38.9689 49.248 39.0794 49.4063 39.0295L50.6415 38.6402C50.7997 38.5903 50.8936 38.399 50.8512 38.2129L50.8511 38.2124C50.8087 38.0263 50.6461 37.9158 50.4878 37.9657Z" fill="#D8D8D8"/>
<path opacity="0.136" d="M52.3918 37.3651L51.1566 37.7544C50.9983 37.8043 50.9044 37.9956 50.9468 38.1817L50.9469 38.1822C50.9893 38.3683 51.152 38.4788 51.3102 38.4289L52.5454 38.0396C52.7036 37.9897 52.7975 37.7984 52.7551 37.6123L52.755 37.6118C52.7126 37.4257 52.55 37.3152 52.3918 37.3651Z" fill="#D8D8D8"/>
<path opacity="0.136" d="M54.7706 36.6151L53.5354 37.0044C53.3772 37.0543 53.2833 37.2456 53.3257 37.4317L53.3258 37.4322C53.3682 37.6183 53.5309 37.7288 53.6891 37.6789L54.9243 37.2896C55.0825 37.2397 55.1764 37.0484 55.134 36.8623L55.1339 36.8618C55.0915 36.6757 54.9289 36.5652 54.7706 36.6151Z" fill="#D8D8D8"/>
<path opacity="0.136" d="M56.6741 36.0155L55.4389 36.4048C55.2807 36.4547 55.1868 36.646 55.2292 36.8321L55.2293 36.8326C55.2717 37.0187 55.4344 37.1292 55.5926 37.0793L56.8278 36.69C56.986 36.6401 57.0799 36.4488 57.0375 36.2627L57.0374 36.2622C56.995 36.0761 56.8324 35.9656 56.6741 36.0155Z" fill="#D8D8D8"/>
<path opacity="0.136" d="M58.5779 35.4159L57.3427 35.8052C57.1844 35.8551 57.0905 36.0464 57.1329 36.2325L57.133 36.233C57.1754 36.4191 57.3381 36.5296 57.4963 36.4797L58.7315 36.0904C58.8897 36.0405 58.9836 35.8492 58.9412 35.6631L58.9411 35.6626C58.8987 35.4765 58.7361 35.366 58.5779 35.4159Z" fill="#D8D8D8"/>
<path opacity="0.136" d="M60.4813 34.8153L59.2461 35.2046C59.0879 35.2545 58.994 35.4458 59.0364 35.6319L59.0365 35.6324C59.0789 35.8185 59.2415 35.929 59.3998 35.8791L60.635 35.4898C60.7932 35.4399 60.8871 35.2486 60.8447 35.0625L60.8446 35.062C60.8022 34.8759 60.6396 34.7654 60.4813 34.8153Z" fill="#D8D8D8"/>
<path opacity="0.136" d="M62.8607 34.0653L61.6255 34.4546C61.4672 34.5045 61.3733 34.6958 61.4157 34.8819L61.4158 34.8824C61.4582 35.0685 61.6209 35.179 61.7791 35.1291L63.0143 34.7398C63.1725 34.6899 63.2664 34.4986 63.2241 34.3125L63.2239 34.312C63.1815 34.1259 63.0189 34.0154 62.8607 34.0653Z" fill="#D8D8D8"/>
<path opacity="0.136" d="M64.7641 33.4657L63.5289 33.855C63.3707 33.9049 63.2768 34.0962 63.3192 34.2823L63.3193 34.2828C63.3617 34.4689 63.5244 34.5794 63.6826 34.5295L64.9178 34.1402C65.076 34.0903 65.1699 33.899 65.1275 33.7129L65.1274 33.7124C65.085 33.5263 64.9224 33.4158 64.7641 33.4657Z" fill="#D8D8D8"/>
<path opacity="0.136" d="M66.6681 32.8661L65.4329 33.2554C65.2747 33.3053 65.1808 33.4966 65.2232 33.6827L65.2233 33.6832C65.2657 33.8693 65.4283 33.9798 65.5865 33.9299L66.8217 33.5406C66.98 33.4907 67.0739 33.2994 67.0315 33.1133L67.0314 33.1128C66.989 32.9267 66.8263 32.8162 66.6681 32.8661Z" fill="#D8D8D8"/>
<path opacity="0.136" d="M69.0469 32.1161L67.8117 32.5054C67.6535 32.5553 67.5596 32.7466 67.602 32.9327L67.6021 32.9332C67.6445 33.1193 67.8072 33.2298 67.9654 33.1799L69.2006 32.7906C69.3588 32.7407 69.4527 32.5494 69.4103 32.3633L69.4102 32.3628C69.3678 32.1767 69.2052 32.0662 69.0469 32.1161Z" fill="#D8D8D8"/>
<path opacity="0.136" d="M70.9502 31.5155L69.715 31.9048C69.5568 31.9547 69.4629 32.146 69.5053 32.3321L69.5054 32.3326C69.5478 32.5187 69.7104 32.6292 69.8687 32.5793L71.1039 32.19C71.2621 32.1401 71.356 31.9488 71.3136 31.7627L71.3135 31.7622C71.2711 31.5761 71.1085 31.4656 70.9502 31.5155Z" fill="#D8D8D8"/>
<path opacity="0.136" d="M72.8542 30.9159L71.619 31.3052C71.4607 31.3551 71.3668 31.5464 71.4092 31.7325L71.4093 31.733C71.4517 31.9191 71.6144 32.0296 71.7726 31.9797L73.0078 31.5904C73.166 31.5405 73.26 31.3492 73.2176 31.1631L73.2174 31.1626C73.175 30.9765 73.0124 30.866 72.8542 30.9159Z" fill="#D8D8D8"/>
<path fill-rule="evenodd" clip-rule="evenodd" d="M57.4358 67.9349C57.3459 67.9349 57.2602 67.9528 57.1736 67.9658C57.158 67.8934 57.1433 67.8205 57.126 67.7482C57.5632 67.5331 57.9236 67.1467 58.146 66.6545C58.3685 66.1623 58.4391 65.5947 58.3461 65.0482C58.2531 64.5017 58.002 64.0099 57.6357 63.6564C57.2693 63.3029 56.8102 63.1095 56.3363 63.1091C55.8883 63.111 55.4534 63.2867 55.099 63.609C55.0536 63.5545 55.0078 63.5004 54.9615 63.4469C55.2295 63.0323 55.3752 62.5262 55.3763 62.0054C55.376 61.4494 55.2126 60.9107 54.9135 60.4801C54.6145 60.0496 54.1983 59.7538 53.7352 59.6426C53.2721 59.5314 52.7906 59.6118 52.3721 59.87C51.9536 60.1283 51.6237 60.5486 51.4382 61.06C51.3775 61.0397 51.3164 61.0228 51.2557 61.0045C51.2668 60.9027 51.2819 60.8018 51.2819 60.6961C51.2819 60.0562 51.0658 59.4424 50.6811 58.9899C50.2964 58.5374 49.7747 58.2832 49.2307 58.2832C48.6866 58.2832 48.1649 58.5374 47.7802 58.9899C47.3955 59.4424 47.1794 60.0562 47.1794 60.6961C47.1794 60.8018 47.1945 60.9027 47.2056 61.0045C47.1449 61.0228 47.0838 61.0397 47.0231 61.06C46.8383 60.5477 46.5085 60.1263 46.0898 59.8673C45.671 59.6082 45.189 59.5275 44.7255 59.6388C44.2619 59.7501 43.8453 60.0465 43.5463 60.4779C43.2473 60.9092 43.0843 61.4489 43.085 62.0054C43.085 62.5483 43.2425 63.0434 43.4998 63.4469C41.9748 65.1996 41.0255 67.642 41.0255 70.3478C41.0255 75.6785 44.699 79.9995 49.2307 79.9995C53.062 79.9995 56.2707 76.9062 57.1736 72.7299C57.2602 72.7429 57.3459 72.7608 57.4358 72.7608C57.9798 72.7608 58.5016 72.5066 58.8863 72.054C59.271 71.6015 59.4871 70.9878 59.4871 70.3478C59.4871 69.7079 59.271 69.0942 58.8863 68.6416C58.5016 68.1891 57.9798 67.9349 57.4358 67.9349Z" fill="#44D860"/>
<path fill-rule="evenodd" clip-rule="evenodd" d="M32.8204 51.0453H49.2306V41.3936H32.8204V51.0453Z" fill="#3ECC5F"/>
<path fill-rule="evenodd" clip-rule="evenodd" d="M53.3336 47.4258C53.6056 47.4258 53.8664 47.2987 54.0588 47.0724C54.2511 46.8462 54.3592 46.5393 54.3592 46.2193C54.3592 45.8994 54.2511 45.5925 54.0588 45.3662C53.8664 45.14 53.6056 45.0129 53.3336 45.0129C53.2888 45.0129 53.2458 45.0221 53.2027 45.0283C53.1945 44.9921 53.1875 44.9559 53.1789 44.9197C53.3972 44.8119 53.5771 44.6186 53.6881 44.3726C53.7991 44.1265 53.8343 43.8429 53.7878 43.5698C53.7413 43.2967 53.6159 43.051 53.4329 42.8742C53.2499 42.6974 53.0206 42.6005 52.7838 42.6C52.5504 42.6 52.3375 42.695 52.1651 42.8499C52.1426 42.8224 52.1196 42.7954 52.0962 42.7689C52.225 42.5676 52.3038 42.3196 52.3038 42.0479C52.3037 41.7698 52.222 41.5003 52.0725 41.285C51.9229 41.0697 51.7147 40.9217 51.4831 40.8661C51.2515 40.8106 51.0107 40.8508 50.8014 40.9801C50.5921 41.1093 50.4272 41.3196 50.3346 41.5754C49.9755 41.4559 49.6042 41.3947 49.231 41.3935C46.9655 41.3935 45.1284 43.5545 45.1284 46.2193C45.1284 48.8842 46.9655 51.0452 49.231 51.0452C49.6142 51.0452 49.983 50.9786 50.3346 50.8633C50.4272 51.1191 50.5921 51.3294 50.8014 51.4586C51.0107 51.5879 51.2515 51.6281 51.4831 51.5726C51.7147 51.517 51.9229 51.369 52.0725 51.1537C52.222 50.9384 52.3037 50.6689 52.3038 50.3908C52.3038 50.1191 52.225 49.8711 52.0962 49.6698C52.1196 49.6433 52.1426 49.6163 52.1651 49.5888C52.3375 49.7437 52.5504 49.8387 52.7838 49.8387C53.0208 49.8387 53.2506 49.7421 53.4339 49.5654C53.6172 49.3886 53.7428 49.1426 53.7894 48.8693C53.836 48.5959 53.8006 48.3119 53.6893 48.0658C53.578 47.8196 53.3976 47.6264 53.1789 47.519C53.1875 47.4832 53.1945 47.4466 53.2027 47.4104C53.2458 47.4166 53.2888 47.4258 53.3336 47.4258Z" fill="#44D860"/>
<path fill-rule="evenodd" clip-rule="evenodd" d="M57.4359 11.8347C57.3702 11.8347 57.3005 11.8251 57.2348 11.8106C57.1688 11.7955 57.1043 11.7729 57.042 11.7431C56.9805 11.7141 56.923 11.6755 56.8652 11.6321C56.8119 11.5886 56.7589 11.5355 56.7093 11.4825C56.6646 11.4246 56.6194 11.3666 56.5825 11.2991C56.5456 11.2315 56.5128 11.164 56.4878 11.0916C56.4374 10.9442 56.4111 10.7871 56.4102 10.6283C56.4102 10.5511 56.4184 10.469 56.4307 10.3918C56.443 10.3146 56.4635 10.2422 56.4878 10.165C56.5128 10.0926 56.5456 10.0251 56.5825 9.95749C56.6194 9.89476 56.6646 9.83202 56.7093 9.77411C56.7589 9.72102 56.8119 9.66794 56.8652 9.62451C56.923 9.58107 56.9805 9.54247 57.042 9.51351C57.1031 9.48456 57.1692 9.46043 57.2348 9.44595C57.3661 9.41217 57.5015 9.41217 57.6369 9.44595C57.7021 9.46043 57.7682 9.48456 57.8297 9.51351C57.8908 9.54247 57.9487 9.58107 58.0061 9.62451C58.0594 9.66794 58.1124 9.72102 58.162 9.77411C58.2071 9.83202 58.2523 9.89476 58.2892 9.95749C58.3261 10.0251 58.3589 10.0926 58.3836 10.165C58.4082 10.2422 58.4287 10.3146 58.441 10.3918C58.4529 10.469 58.4615 10.5511 58.4615 10.6283C58.4615 10.9468 58.3503 11.2605 58.162 11.4825C58.1124 11.5355 58.0594 11.5886 58.0061 11.6321C57.9487 11.6755 57.8908 11.7141 57.8297 11.7431C57.7046 11.8031 57.5709 11.8342 57.4359 11.8347ZM65.641 11.2315C65.3702 11.2315 65.1077 11.1012 64.9144 10.8792C64.8689 10.8214 64.8265 10.7601 64.7877 10.6958C64.7507 10.6283 64.7179 10.5607 64.6929 10.4883C64.6425 10.341 64.6162 10.1838 64.6154 10.0251C64.6154 9.70655 64.7261 9.39769 64.9144 9.17088C64.9641 9.11779 65.017 9.06471 65.0703 9.02127C65.1282 8.97784 65.1856 8.93924 65.2471 8.91028C65.3083 8.88133 65.3743 8.8572 65.44 8.84272C65.5713 8.80894 65.7107 8.80894 65.842 8.84272C65.9073 8.8572 65.9733 8.88133 66.0348 8.91028C66.096 8.93924 66.1538 8.97784 66.2113 9.02127C66.2646 9.06471 66.3175 9.11779 66.3672 9.17088C66.5555 9.39769 66.6666 9.70655 66.6666 10.0251C66.6666 10.1023 66.658 10.1843 66.6461 10.2615C66.6338 10.3387 66.6133 10.4159 66.5887 10.4883C66.56 10.5607 66.5313 10.6283 66.4943 10.6958C66.4574 10.7586 66.4123 10.8213 66.3672 10.8792C66.3175 10.9323 66.2646 10.9854 66.2113 11.0288C66.1538 11.0723 66.096 11.1109 66.0348 11.1398C65.9098 11.1998 65.7761 11.231 65.641 11.2315Z" fill="black"/>
</svg>
