<svg width="80" height="80" viewBox="0 0 80 80" fill="none" xmlns="http://www.w3.org/2000/svg">
<mask id="mask0_8028_901" style="mask-type:luminance" maskUnits="userSpaceOnUse" x="0" y="0" width="80" height="80">
<path d="M80 0H0V80H80V0Z" fill="white"/>
</mask>
<g mask="url(#mask0_8028_901)">
<path fill-rule="evenodd" clip-rule="evenodd" d="M8.6439 20.9041H39.9559V17.4642H20.8159V8.73208C20.8159 8.73208 20.8159 0 39.9559 0C59.0959 0 59.0959 8.73208 59.0959 8.73208C59.0959 8.73208 59.2724 24.2558 59.0959 29.548C59.0959 34.8401 55.5678 38.3682 50.2757 38.3682H29.3716C22.4036 38.3682 17.1996 43.5722 17.1996 50.5402V59.2723H8.4675C8.4675 59.2723 -0.264587 59.2723 -0.264587 40.1323C-0.264587 20.9923 8.4675 20.9923 8.4675 20.9923L8.6439 20.9041ZM32.9879 8.73208C32.9879 10.6725 31.4002 12.172 29.548 12.172C27.6957 12.172 26.1081 10.5843 26.1081 8.73208C26.1081 6.87982 27.6957 5.29217 29.548 5.29217C31.4002 5.29217 32.9879 6.87982 32.9879 8.73208Z" fill="#387EB8"/>
<path fill-rule="evenodd" clip-rule="evenodd" d="M71.268 59.0958H39.9559V62.5357H59.096V71.2678C59.096 71.2678 59.096 79.9999 39.9559 79.9999C20.8159 79.9999 20.8159 71.2678 20.8159 71.2678V50.3637C20.8159 45.1597 24.2558 41.6316 29.548 41.6316H50.4521C57.4201 41.6316 62.6241 36.4277 62.6241 29.4596V20.7275H71.3562C71.3562 20.7275 80.0882 20.7275 80.0882 39.8676C80.0882 59.0076 71.3562 59.0076 71.3562 59.0076L71.268 59.0958ZM53.892 71.2678C53.892 73.2082 52.3043 74.7077 50.4521 74.7077C48.5998 74.7077 47.0122 73.12 47.0122 71.2678C47.0122 69.4155 48.5998 67.8279 50.4521 67.8279C52.3043 67.8279 53.892 69.4155 53.892 71.2678Z" fill="#FFC331"/>
</g>
</svg>
