<svg width="88" height="80" viewBox="0 0 88 80" fill="none" xmlns="http://www.w3.org/2000/svg">
<g clip-path="url(#clip0_8028_6)">
<path d="M40.0798 0L24.4732 23.4017V38.2366H14.9075V23.4017L0 0H10.7512L20.2305 15.0679L29.7876 0H40.0798Z" fill="white"/>
<path d="M56.143 29.8234H38.8288L35.3073 38.3264H27.6402L43.8528 0.0898438H51.6951L67.2499 38.3264H59.0569L56.1428 29.8234H56.143ZM53.2669 22.1895L47.9592 8.15772L42.0376 22.1895H53.2669Z" fill="#CB171E"/>
<path d="M14.9073 42.5244V79.9996H22.9478V54.1496L31.3626 71.5248H37.6916L46.3938 53.5389V79.992H54.1073V42.5244H43.5754L34.2305 59.4723L25.3304 42.5244H14.9073Z" fill="white"/>
<path d="M87.0291 71.8557H67.2501V42.5156H59.0578V79.8297H87.0291V71.856V71.8557Z" fill="white"/>
</g>
<defs>
<clipPath id="clip0_8028_6">
<rect width="87.0291" height="80" fill="white"/>
</clipPath>
</defs>
</svg>
